<svg version="1.0" xmlns="http://www.w3.org/2000/svg" width="350.000000pt" height="257.000000pt" viewBox="0 0 350.000000 257.000000" preserveAspectRatio="xMidYMid meet"><g transform="translate(0.000000,257.000000) scale(0.100000,-0.100000)" fill="green" stroke="none"><path d="M1735 2505 c-23 -22 -25 -32 -25 -108 0 -98 10 -116 67 -124 35 -5 45 -2 67 20 24 24 26 33 26 111 0 79 -2 86 -26 105 -36 28 -79 27 -109 -4z"/><path d="M1593 2513 c-9 -3 -13 -31 -14 -86 l0 -82 -27 75 c-27 74 -42 89 -71 71 -11 -7 -5 -29 32 -117 43 -102 48 -109 76 -112 19 -2 33 2 36 10 2 7 5 66 7 131 3 122 1 127 -39 110z"/><path d="M1969 2497 c-29 -22 -41 -58 -46 -137 l-6 -78 31 -16 c60 -31 114 -11 128 47 6 25 4 27 -24 27 -22 0 -31 -6 -35 -21 -4 -14 -12 -19 -24 -17 -15 3 -18 12 -15 53 4 65 20 107 41 103 9 -2 17 -13 19 -26 3 -16 10 -22 28 -22 20 0 24 5 24 28 0 35 -9 48 -43 61 -36 14 -58 13 -78 -2z"/><path d="M1307 2445 c-21 -7 -40 -15 -43 -17 -3 -4 44 -153 70 -225 4 -9 16 -8 48 4 85 33 96 55 66 149 -32 103 -58 119 -141 89z"/><path d="M2152 2347 c-34 -57 -62 -107 -62 -109 0 -3 10 -8 23 -12 15 -4 27 1 38 16 22 29 49 17 49 -21 0 -23 5 -30 25 -33 14 -3 25 -5 25 -4 4 20 28 252 26 253 -1 2 -16 5 -32 9 -29 5 -32 2 -92 -99z"/><path d="M1123 2368 c-13 -6 -23 -19 -23 -29 0 -17 50 -220 56 -227 1 -2 12 -1 23 3 15 4 21 15 21 36 0 36 24 48 49 25 16 -15 22 -15 40 -4 12 7 21 15 21 18 0 7 -151 185 -159 187 -3 1 -16 -3 -28 -9z"/><path d="M2373 2338 c-32 -35 -73 -118 -73 -148 0 -31 33 -64 72 -74 20 -4 34 0 57 20 37 31 38 35 10 52 -18 12 -24 11 -41 -8 -18 -20 -22 -20 -36 -7 -13 14 -11 22 19 74 24 39 41 58 54 58 14 0 19 -6 18 -22 -3 -25 21 -48 42 -39 9 3 15 18 15 40 0 67 -92 102 -137 54z"/><path d="M2577 2273 c-3 -4 -13 -37 -22 -72 -11 -43 -28 -78 -51 -105 l-34 -40 20 -21 21 -20 42 47 c23 26 70 62 103 80 l61 33 -23 18 c-29 21 -30 21 -61 -3 -32 -25 -36 -22 -22 19 10 29 9 35 -8 53 -12 11 -23 16 -26 11z"/><path d="M871 2204 c-11 -13 -10 -19 13 -43 29 -30 32 -44 13 -60 -10 -8 -20 -4 -42 19 -33 34 -33 34 -58 15 -18 -13 -14 -19 59 -104 43 -50 80 -91 83 -91 4 0 15 7 25 15 19 14 19 16 -13 56 -32 38 -32 41 -15 54 17 13 22 11 47 -20 32 -39 42 -42 64 -20 15 16 12 20 -116 167 -27 32 -40 34 -60 12z"/><path d="M717 2058 c-9 -13 -30 -38 -46 -57 -17 -18 -31 -37 -31 -42 0 -16 23 -21 45 -9 22 12 29 8 93 -49 38 -33 73 -61 78 -61 5 0 15 9 21 19 11 17 7 24 -25 52 -115 100 -114 98 -97 116 15 14 14 17 -1 34 -21 23 -19 24 -37 -3z"/><path d="M2780 2027 c-20 -17 -60 -54 -89 -80 -54 -48 -54 -48 -35 -68 19 -19 20 -19 54 11 42 35 47 36 77 9 18 -18 25 -20 38 -9 13 11 12 16 -6 41 -17 24 -19 32 -8 45 11 13 16 11 43 -15 27 -25 33 -27 44 -15 7 8 12 18 10 23 -5 15 -78 91 -85 91 -5 0 -24 -15 -43 -33z"/><path d="M572 1868 c-7 -7 -12 -17 -12 -23 0 -14 197 -138 209 -131 5 3 21 27 36 52 26 44 26 46 8 59 -16 12 -20 11 -36 -10 -10 -14 -23 -25 -29 -25 -6 0 -43 20 -82 45 -82 51 -78 49 -94 33z"/><path d="M2853 1834 c-71 -40 -87 -62 -78 -106 16 -72 62 -85 147 -42 96 49 120 95 77 155 -28 40 -68 38 -146 -7z"/><path d="M486 1711 c-8 -15 -11 -32 -8 -37 9 -12 172 -135 189 -141 21 -8 28 46 8 61 -26 19 -12 46 24 46 26 0 41 14 41 40 0 4 -28 13 -62 19 -35 6 -89 18 -121 25 l-57 14 -14 -27z"/><path d="M3005 1661 c-104 -41 -134 -59 -140 -84 -8 -32 9 -73 40 -93 24 -16 29 -15 123 18 95 34 112 48 93 77 -7 11 -24 8 -97 -18 -83 -30 -114 -34 -114 -12 0 11 37 30 127 63 60 23 61 23 50 50 l-12 26 -70 -27z"/><path d="M810 1573 c-8 -3 -23 -14 -32 -23 -16 -17 -15 -19 12 -30 36 -15 102 -85 128 -137 20 -38 60 -164 103 -323 62 -231 183 -394 345 -466 189 -83 488 -97 613 -28 24 13 48 24 53 24 6 0 30 -18 55 -40 25 -22 51 -40 58 -40 36 0 73 24 88 56 11 22 30 40 51 49 22 10 37 25 45 45 7 20 20 34 40 41 21 7 34 21 42 44 9 23 23 38 51 49 42 19 54 45 45 99 -4 26 2 40 30 74 49 60 66 108 65 180 -1 137 -98 245 -239 268 -70 11 -190 -33 -230 -85 -11 -13 -15 -13 -40 2 -150 93 -234 106 -339 50 -71 -39 -118 -94 -135 -163 -7 -27 -16 -49 -20 -49 -5 0 -16 16 -25 35 -18 39 -137 165 -199 212 -77 58 -208 122 -295 142 -81 20 -234 27 -270 14z m1193 -236 c84 -49 85 -46 -45 -170 -64 -62 -119 -122 -122 -133 -6 -19 14 -54 29 -54 18 0 70 32 116 72 68 57 113 78 171 78 57 0 84 -18 206 -135 83 -79 102 -103 102 -126 0 -24 -4 -29 -26 -29 -14 0 -43 14 -64 31 -23 19 -45 29 -54 26 -24 -9 -20 -19 24 -62 41 -40 49 -62 28 -83 -20 -20 -41 -14 -82 23 -21 19 -47 35 -57 35 -29 0 -23 -32 12 -60 42 -34 52 -55 39 -80 -16 -29 -43 -25 -86 15 -39 36 -74 46 -74 21 0 -8 14 -27 31 -43 37 -34 50 -62 37 -85 -26 -50 -113 12 -113 80 0 34 -2 37 -32 40 -27 3 -33 8 -33 26 0 28 -18 46 -45 46 -15 0 -24 9 -30 33 -8 26 -16 33 -41 35 -27 3 -31 6 -26 24 7 27 -22 49 -57 42 -57 -11 -161 141 -161 236 0 87 56 175 135 212 57 27 158 20 218 -15z m-249 -504 c1 -35 3 -38 34 -41 28 -3 32 -7 32 -32 0 -30 24 -46 53 -34 12 4 16 -3 19 -33 2 -31 7 -39 26 -41 82 -12 -88 -52 -219 -52 -90 0 -98 2 -143 31 -43 29 -116 106 -116 124 0 4 24 -15 53 -42 53 -51 104 -83 130 -83 29 0 60 128 57 235 -1 33 -2 64 -1 70 0 5 18 -7 38 -27 29 -29 37 -45 37 -75z"/><path d="M408 1513 c-9 -32 -13 -62 -9 -66 4 -4 54 -21 110 -37 56 -16 106 -32 111 -35 4 -3 16 25 26 61 15 56 15 67 3 75 -21 13 -33 6 -43 -29 -7 -25 -14 -32 -34 -32 -23 0 -24 3 -19 39 4 29 1 41 -10 45 -26 10 -31 7 -38 -24 -5 -24 -12 -30 -32 -30 -23 0 -24 3 -18 33 4 17 8 36 9 42 0 5 -8 11 -19 13 -17 2 -23 -7 -37 -55z"/><path d="M3021 1436 c-92 -22 -109 -32 -98 -61 5 -11 14 -11 62 1 54 14 89 12 49 -3 -10 -3 -36 -17 -57 -30 -34 -21 -38 -28 -32 -51 4 -15 7 -28 9 -29 5 -6 230 54 233 62 1 6 -1 16 -6 24 -8 13 -17 13 -65 -1 -31 -8 -56 -12 -56 -8 0 4 6 10 14 13 8 3 32 17 54 31 33 21 39 29 35 50 -6 32 -16 32 -142 2z"/><path d="M366 1344 c-10 -27 -7 -34 18 -34 45 0 75 -17 69 -39 -4 -17 -11 -19 -54 -14 -48 6 -49 5 -49 -20 0 -28 -7 -26 137 -47 106 -15 113 -14 113 14 0 25 -21 36 -72 36 -24 0 -28 4 -28 26 0 26 1 27 55 21 55 -6 55 -5 55 22 0 27 0 27 -102 39 -131 15 -135 15 -142 -4z"/><path d="M2963 1212 c-17 -11 -5 -108 15 -129 12 -12 35 -14 109 -11 109 4 113 6 113 91 l0 57 -112 0 c-62 0 -119 -4 -125 -8z"/><path d="M563 1053 c-7 -3 -13 -19 -13 -38 l0 -32 -99 -7 -100 -8 3 -26 c1 -17 7 -26 16 -25 8 1 64 5 124 8 l108 7 -4 54 c-5 57 -14 75 -35 67z"/><path d="M2960 1032 c0 -6 -3 -17 -6 -26 -4 -10 3 -19 20 -28 34 -15 32 -50 -4 -58 -16 -4 -26 -14 -28 -29 l-4 -24 99 7 c144 10 150 12 157 48 3 17 5 32 4 33 -2 1 -48 18 -103 38 -55 19 -108 38 -117 42 -10 4 -18 3 -18 -3z"/><path d="M488 852 c-53 -26 -99 -50 -103 -54 -4 -4 -4 -21 0 -38 l7 -31 124 2 124 1 0 29 c0 26 -4 29 -30 29 -25 0 -30 4 -30 25 0 15 6 25 14 25 8 0 17 4 20 8 8 13 -5 52 -18 51 -6 0 -55 -22 -108 -47z"/><path d="M2921 798 c-5 -13 -6 -26 -2 -29 3 -4 45 -17 94 -30 83 -22 87 -25 87 -51 0 -21 5 -28 19 -28 14 0 22 14 35 61 10 33 15 67 12 75 -7 18 -36 18 -36 0 0 -26 -18 -27 -92 -6 -40 12 -81 24 -91 26 -11 4 -20 -2 -26 -18z"/><path d="M580 659 c-109 -42 -107 -42 -113 -19 -6 22 -14 24 -36 11 -11 -7 -9 -20 9 -70 25 -68 30 -74 55 -65 11 5 15 14 11 30 -6 21 1 25 76 54 97 37 99 39 92 68 -8 27 -3 27 -94 -9z"/><path d="M2820 548 c-42 -69 -23 -99 92 -153 67 -31 83 -31 113 1 31 33 33 86 5 114 -31 31 -116 70 -155 70 -29 0 -39 -6 -55 -32z"/><path d="M624 524 c-89 -47 -104 -62 -104 -100 0 -50 47 -97 87 -88 74 18 163 84 163 120 0 48 -36 93 -76 94 -12 0 -43 -12 -70 -26z"/><path d="M2733 403 c-4 -10 1 -22 13 -30 99 -72 99 -74 2 -37 -44 17 -49 17 -64 2 -9 -9 -14 -23 -11 -31 3 -8 44 -44 92 -81 70 -54 89 -65 101 -55 23 19 16 32 -31 64 -24 17 -45 33 -45 37 0 3 28 -4 62 -18 l63 -24 17 22 c20 26 22 24 -101 119 -68 52 -88 59 -98 32z"/><path d="M760 315 c-36 -30 -69 -54 -74 -54 -5 -1 -17 6 -26 14 -15 14 -18 14 -30 0 -10 -13 -8 -21 14 -53 56 -79 58 -80 84 -63 12 7 12 12 1 29 -7 12 -11 23 -9 25 3 2 38 29 78 61 63 50 71 59 62 76 -6 11 -16 20 -23 20 -7 0 -41 -25 -77 -55z"/></g></svg>